<svg width="62" height="61" viewBox="0 0 62 61" fill="none" xmlns="http://www.w3.org/2000/svg">
<g clip-path="url(#clip0_496_211)">
<path d="M53.0957 0H8.90426C3.99438 0 0 3.92996 0 8.76064V52.2394C0 57.07 3.99438 61 8.90426 61H53.0957C58.0056 61 62 57.07 62 52.2394V8.76064C62 3.92996 58.0056 0 53.0957 0ZM60.0213 29.5266H55.734C55.1875 29.5266 54.7447 29.9624 54.7447 30.5C54.7447 31.0376 55.1875 31.4734 55.734 31.4734H60.0213V52.2394C60.0213 55.9966 56.9144 59.0532 53.0957 59.0532H8.90426C5.08545 59.0532 1.97872 55.9966 1.97872 52.2394V31.4734H6.26596C6.81235 31.4734 7.25532 31.0376 7.25532 30.5C7.25532 29.9624 6.81235 29.5266 6.26596 29.5266H1.97872V8.76064C1.97872 5.00343 5.08545 1.94681 8.90426 1.94681H53.0957C56.9144 1.94681 60.0213 5.00343 60.0213 8.76064V29.5266Z" fill="black"/>
<path d="M10.2232 31.4734H51.7764C52.323 31.4734 52.7658 31.0376 52.7658 30.5C52.7658 29.9624 52.323 29.5266 51.7764 29.5266H10.2232C9.67686 29.5266 9.23389 29.9624 9.23389 30.5C9.23389 31.0376 9.67686 31.4734 10.2232 31.4734Z" fill="black"/>
<path d="M10.2232 27.5797H51.7764C52.323 27.5797 52.7658 27.1439 52.7658 26.6063V6.16481C52.7658 5.62723 52.323 5.19141 51.7764 5.19141H10.2232C9.67686 5.19141 9.23389 5.62723 9.23389 6.16481V26.6063C9.23389 27.1439 9.67686 27.5797 10.2232 27.5797ZM11.2126 7.13821H50.7871V25.6329H11.2126V7.13821Z" fill="black"/>
<path d="M47.8191 33.4202H14.1808C13.6344 33.4202 13.1914 33.856 13.1914 34.3936V54.8351C13.1914 55.3726 13.6344 55.8085 14.1808 55.8085H47.8191C48.3656 55.8085 48.8084 55.3726 48.8084 54.8351V34.3936C48.8084 33.856 48.3656 33.4202 47.8191 33.4202ZM46.8297 53.8617H15.1701V35.367H46.8297V53.8617Z" fill="black"/>
<path d="M54.4149 52.7261C55.1434 52.7261 55.734 52.145 55.734 51.4282C55.734 50.7114 55.1434 50.1304 54.4149 50.1304C53.6863 50.1304 53.0957 50.7114 53.0957 51.4282C53.0957 52.145 53.6863 52.7261 54.4149 52.7261Z" fill="black"/>
<path d="M10.2235 48.1834H8.57454V46.5611C8.57454 46.0235 8.13157 45.5876 7.58518 45.5876C7.03879 45.5876 6.59582 46.0235 6.59582 46.5611V48.1834H4.94688C4.40049 48.1834 3.95752 48.6192 3.95752 49.1568C3.95752 49.6944 4.40049 50.1302 4.94688 50.1302H6.59582V51.7525C6.59582 52.2901 7.03879 52.7259 7.58518 52.7259C8.13157 52.7259 8.57454 52.2901 8.57454 51.7525V50.1302H10.2235C10.7699 50.1302 11.2128 49.6944 11.2128 49.1568C11.2128 48.6192 10.7699 48.1834 10.2235 48.1834Z" fill="black"/>
<path d="M7.58518 36.5027C5.58482 36.5027 3.95752 38.1037 3.95752 40.0718C3.95752 42.0399 5.58482 43.641 7.58518 43.641C9.58554 43.641 11.2128 42.0399 11.2128 40.0718C11.2128 38.1037 9.58554 36.5027 7.58518 36.5027ZM7.58518 41.6942C6.67589 41.6942 5.93624 40.9665 5.93624 40.0718C5.93624 39.1772 6.67589 38.4495 7.58518 38.4495C8.49447 38.4495 9.23412 39.1772 9.23412 40.0718C9.23412 40.9665 8.49447 41.6942 7.58518 41.6942Z" fill="black"/>
<path d="M50.7871 40.0718C50.7871 42.0399 52.4145 43.641 54.4148 43.641C56.415 43.641 58.0424 42.0399 58.0424 40.0718C58.0424 38.1037 56.415 36.5027 54.4148 36.5027C52.4145 36.5027 50.7871 38.1037 50.7871 40.0718ZM56.0637 40.0718C56.0637 40.9665 55.3241 41.6942 54.4148 41.6942C53.5055 41.6942 52.7658 40.9665 52.7658 40.0718C52.7658 39.1772 53.5055 38.4495 54.4148 38.4495C55.3241 38.4495 56.0637 39.1772 56.0637 40.0718Z" fill="black"/>
</g>
<defs>
<clipPath id="clip0_496_211">
<rect width="62" height="61" fill="white"/>
</clipPath>
</defs>
</svg>
