<svg width="77" height="77" viewBox="0 0 77 77" fill="none" xmlns="http://www.w3.org/2000/svg">
<path d="M76.9037 57.1952L71.6713 20.6266C71.2149 17.4374 69.6213 14.5076 67.1845 12.377C64.7234 10.2253 61.5658 9.04028 58.2933 9.04028C53.6615 9.04028 49.3544 11.4263 46.8831 15.3143H30.1169C27.6454 11.4263 23.3385 9.04028 18.7067 9.04028C15.434 9.04028 12.2766 10.2253 9.81551 12.377C7.37871 14.5076 5.78514 17.4374 5.32872 20.6266L0.0961679 57.1952C0.0322744 57.6413 0 58.0936 0 58.5395C0 63.7339 4.22582 67.9597 9.42019 67.9597C13.3077 67.9597 16.8474 65.518 18.2283 61.884L22.8416 49.7388C23.9535 50.6077 25.3508 51.1274 26.8682 51.1274C29.4539 51.1274 31.6941 49.6217 32.7595 47.4412H44.2405C45.3059 49.6217 47.5461 51.1274 50.1318 51.1274C51.649 51.1274 53.0463 50.6076 54.1584 49.7388L58.7718 61.8841C60.1526 65.5182 63.6923 67.9597 67.5798 67.9597C72.7742 67.9597 77 63.7339 77 58.5395C76.9998 58.0936 76.9676 57.6413 76.9037 57.1952ZM26.868 48.67C24.6096 48.67 22.7723 46.8326 22.7723 44.5742C22.7723 42.3158 24.6096 40.4785 26.868 40.4785C29.1264 40.4785 30.9638 42.3158 30.9638 44.5742C30.9638 46.8326 29.1264 48.67 26.868 48.67ZM50.1318 48.67C47.8734 48.67 46.0361 46.8326 46.0361 44.5742C46.0361 42.3158 47.8734 40.4785 50.1318 40.4785C52.3902 40.4785 54.2275 42.3158 54.2275 44.5742C54.2275 46.8326 52.3902 48.67 50.1318 48.67ZM67.5796 65.5023C64.7061 65.5023 62.0896 63.6974 61.0691 61.0112L55.9607 47.5631C56.4225 46.6662 56.685 45.6506 56.685 44.5742C56.685 40.9608 53.7452 38.0211 50.1318 38.0211C46.5184 38.0211 43.5786 40.9608 43.5786 44.5742C43.5786 44.7118 43.5844 44.8482 43.5927 44.9838H33.4071C33.4155 44.8482 33.4212 44.7118 33.4212 44.5742C33.4212 40.9608 30.4814 38.0211 26.868 38.0211C23.2546 38.0211 20.3148 40.9608 20.3148 44.5742C20.3148 45.6506 20.5773 46.6662 21.0391 47.5631L15.9309 61.0112C14.9103 63.6974 12.2938 65.5023 9.42019 65.5023C5.58085 65.5023 2.45744 62.3789 2.45744 58.5395C2.45744 58.2098 2.48136 57.8746 2.52903 57.5433L2.75561 55.9604L13.2787 58.1554C13.3634 58.1731 13.4476 58.1816 13.5308 58.1816C14.1005 58.1816 14.6115 57.7831 14.7324 57.2035C14.871 56.5392 14.4447 55.8883 13.7803 55.7497L3.1044 53.5228L6.66016 28.6726C8.89643 33.059 13.455 36.072 18.7069 36.072C26.1595 36.072 32.2228 30.0088 32.2228 22.556C32.2228 22.153 32.2049 21.7469 32.1695 21.3488C32.1094 20.6728 31.5129 20.1743 30.8368 20.2336C30.1608 20.2937 29.6616 20.8904 29.7216 21.5664C29.7506 21.8922 29.7654 22.2251 29.7654 22.556C29.7654 28.6538 24.8046 33.6145 18.7069 33.6145C12.6091 33.6145 7.64838 28.6538 7.64838 22.556C7.64838 22.4248 7.62741 22.2985 7.58923 22.1799L7.76175 20.9746C8.53486 15.5718 13.2402 11.4976 18.707 11.4976C22.6959 11.4976 26.391 13.6616 28.3502 17.1453C28.5678 17.5322 28.9772 17.7716 29.4211 17.7716H47.5793C48.0233 17.7716 48.4327 17.5322 48.6503 17.1453C50.6095 13.6616 54.3047 11.4976 58.2935 11.4976C63.7601 11.4976 68.4656 15.5718 69.2387 20.9746L69.4113 22.1799C69.3731 22.2985 69.3521 22.4248 69.3521 22.556C69.3521 28.6538 64.3914 33.6145 58.2936 33.6145C52.1959 33.6145 47.2351 28.6538 47.2351 22.556C47.2351 22.2253 47.2499 21.8924 47.2789 21.5664C47.3388 20.8904 46.8397 20.2937 46.1637 20.2336C45.4907 20.1741 44.8911 20.6728 44.8309 21.3488C44.7956 21.7467 44.7777 22.1529 44.7777 22.556C44.7777 30.0088 50.841 36.072 58.2936 36.072C63.5455 36.072 68.1041 33.059 70.3403 28.6726L73.8961 53.5228L63.2203 55.7499C62.556 55.8885 62.1299 56.5392 62.2683 57.2037C62.3892 57.7835 62.9 58.1817 63.4698 58.1817C63.553 58.1817 63.6374 58.1732 63.722 58.1555L74.2449 55.9604L74.4715 57.5433C74.519 57.8746 74.543 58.2098 74.543 58.5395C74.5424 62.3787 71.419 65.5023 67.5796 65.5023Z" fill="black"/>
<path d="M24.4409 21.3273H19.9356V16.822C19.9356 16.1434 19.3856 15.5933 18.7069 15.5933C18.0281 15.5933 17.4782 16.1434 17.4782 16.822V21.3273H12.9729C12.2941 21.3273 11.7441 21.8774 11.7441 22.556C11.7441 23.2346 12.2941 23.7847 12.9729 23.7847H17.4782V28.29C17.4782 28.9686 18.0281 29.5188 18.7069 29.5188C19.3856 29.5188 19.9356 28.9686 19.9356 28.29V23.7847H24.4409C25.1197 23.7847 25.6696 23.2346 25.6696 22.556C25.6696 21.8774 25.1195 21.3273 24.4409 21.3273Z" fill="black"/>
<path d="M58.2933 29.5188C62.1327 29.5188 65.2561 26.3954 65.2561 22.556C65.2561 18.7167 62.1327 15.5933 58.2933 15.5933C54.454 15.5933 51.3306 18.7167 51.3306 22.556C51.3306 26.3954 54.4541 29.5188 58.2933 29.5188ZM58.2933 18.0507C60.7775 18.0507 62.7986 20.0717 62.7986 22.556C62.7986 25.0403 60.7775 27.0613 58.2933 27.0613C55.8092 27.0613 53.788 25.0403 53.788 22.556C53.788 20.0717 55.8092 18.0507 58.2933 18.0507Z" fill="black"/>
<path d="M40.43 40.0688H36.57C35.8913 40.0688 35.3413 40.619 35.3413 41.2976C35.3413 41.9761 35.8913 42.5263 36.57 42.5263H40.4302C41.1089 42.5263 41.6589 41.9761 41.6589 41.2976C41.6589 40.619 41.1088 40.0688 40.43 40.0688Z" fill="black"/>
</svg>
