<svg width="67" height="67" viewBox="0 0 67 67" fill="none" xmlns="http://www.w3.org/2000/svg">
<g clip-path="url(#clip0_496_279)">
<path d="M61.902 5.09939C55.1046 -1.69784 44.0853 -1.69784 37.2882 5.09939L5.09848 37.2888C1.8329 40.5523 0 44.9795 0 49.5946C0 54.2096 1.83498 58.6371 5.10092 61.9023C11.8984 68.6985 22.9176 68.6985 29.7148 61.9011L61.902 29.7131C68.6993 22.916 68.6993 11.8969 61.902 5.09939ZM50.6911 7.19824C51.6363 6.25209 53.1746 6.25093 54.1239 7.19824C55.0712 8.14776 55.0712 9.68372 54.1239 10.6299C53.1746 11.5793 51.6384 11.5793 50.6911 10.6299C49.744 9.68047 49.744 8.14753 50.6911 7.19824ZM54.1239 16.3131C53.1746 17.2604 51.6384 17.2592 50.6935 16.3131C49.7439 15.3637 49.7439 13.8309 50.6935 12.8803C51.6431 11.9332 53.1747 11.9332 54.1239 12.8803C55.0712 13.8263 55.0735 15.3635 54.1239 16.3131ZM15.753 57.0874C16.4123 57.7469 16.4123 58.815 15.753 59.4739C15.4233 59.8037 14.9927 59.9687 14.5598 59.9687C14.1268 59.9687 13.6958 59.8037 13.3662 59.4739L11.6411 57.7476L9.91383 59.4739C9.58418 59.8037 9.15113 59.9687 8.72064 59.9687C8.28771 59.9687 7.85711 59.8037 7.52733 59.4739C6.86779 58.8147 6.86779 57.7457 7.52733 57.0874L9.25464 55.3612L7.52942 53.6374C6.87022 52.9777 6.87022 51.9099 7.52942 51.2506C8.1885 50.5913 9.25672 50.5913 9.91592 51.2506L11.6411 52.9757L13.3662 51.2506C14.0281 50.5892 15.0962 50.5935 15.753 51.2506C16.4123 51.9102 16.4123 52.9791 15.753 53.6374L14.0281 55.3623L15.753 57.0874ZM55.7745 27.3532L27.361 55.7732C27.0711 56.0623 26.6008 56.0623 26.3106 55.7732L11.2277 40.6917C11.0868 40.5532 11.0101 40.3644 11.0101 40.1676C11.0101 39.9708 11.0868 39.782 11.2277 39.6434L39.648 11.2221C39.789 11.0839 39.9754 11.0055 40.1732 11.0055C40.371 11.0055 40.5577 11.0836 40.6985 11.2221L55.7743 26.305C56.0646 26.5938 56.0646 27.0642 55.7745 27.3532ZM59.8008 16.3131C58.8535 17.2592 57.3199 17.2592 56.3744 16.3106C55.4228 15.3626 55.4228 13.8306 56.3744 12.879C57.3196 11.9328 58.8535 11.9298 59.8029 12.879C60.7524 13.8263 60.7524 15.3627 59.8008 16.3131ZM59.8053 10.6308C58.8556 11.5803 57.3196 11.579 56.3744 10.6308C55.4228 9.68372 55.4228 8.14869 56.3744 7.20137C57.3217 6.25186 58.8558 6.25186 59.8053 7.20137C60.7524 8.14753 60.7524 9.68384 59.8053 10.6308Z" fill="black"/>
</g>
<defs>
<clipPath id="clip0_496_279">
<rect width="67" height="67" fill="white"/>
</clipPath>
</defs>
</svg>
